<svg width="147" height="147" viewBox="0 0 147 147" fill="none" xmlns="http://www.w3.org/2000/svg">
<path fill-rule="evenodd" clip-rule="evenodd" d="M29.4 0C21.6026 0 14.1246 3.09749 8.61106 8.61106C3.09749 14.1246 0 21.6026 0 29.4L0 102.717C0 106.578 0.760453 110.401 2.23794 113.968C3.71543 117.535 5.88102 120.776 8.61106 123.506C14.1246 129.02 21.6026 132.117 29.4 132.117H34.7V147L63.383 132.117H117.6C121.461 132.117 125.284 131.357 128.851 129.879C132.418 128.402 135.659 126.236 138.389 123.506C141.119 120.776 143.285 117.535 144.762 113.968C146.24 110.401 147 106.578 147 102.717V29.4C147 21.6026 143.903 14.1246 138.389 8.61106C132.875 3.09749 125.397 0 117.6 0L29.4 0Z" fill="#FFA34E"/>
<path d="M51.45 117.6C56.974 117.6 62.374 115.962 66.9671 112.893C71.5601 109.824 75.14 105.462 77.254 100.358C79.3679 95.2548 79.921 89.639 78.8433 84.2211C77.7657 78.8032 75.1056 73.8266 71.1995 69.9205C67.2934 66.0144 62.3168 63.3544 56.8989 62.2767C51.481 61.199 45.8652 61.7521 40.7617 63.866C35.6581 65.98 31.296 69.5599 28.2271 74.1529C25.1581 78.746 23.52 84.146 23.52 89.67C23.52 97.0775 26.4626 104.182 31.7005 109.419C36.9384 114.657 44.0425 117.6 51.45 117.6Z" fill="black"/>
<path fill-rule="evenodd" clip-rule="evenodd" d="M77.91 20.58C77.91 18.6306 78.6844 16.7611 80.0628 15.3827C81.4412 14.0044 83.3107 13.23 85.26 13.23C101.285 13.23 113.009 19.756 120.538 29.5C127.86 38.978 130.83 50.967 130.83 61.74C130.83 63.6893 130.056 65.5588 128.677 66.9372C127.299 68.3156 125.429 69.09 123.48 69.09C121.531 69.09 119.661 68.3156 118.283 66.9372C116.904 65.5588 116.13 63.6893 116.13 61.74C116.13 53.403 113.792 44.812 108.905 38.488C104.224 32.43 96.838 27.93 85.26 27.93C83.3107 27.93 81.4412 27.1556 80.0628 25.7772C78.6844 24.3988 77.91 22.5293 77.91 20.58V20.58Z" fill="black"/>
<path fill-rule="evenodd" clip-rule="evenodd" d="M74.97 38.22C74.97 37.0504 75.4346 35.9287 76.2617 35.1017C77.0887 34.2746 78.2104 33.81 79.38 33.81C90.324 33.81 98.247 38.402 103.306 45.158C108.238 51.744 110.25 60.093 110.25 67.62C110.25 68.7896 109.785 69.9113 108.958 70.7383C108.131 71.5654 107.01 72.03 105.84 72.03C104.67 72.03 103.549 71.5654 102.722 70.7383C101.895 69.9113 101.43 68.7896 101.43 67.62C101.43 61.497 99.767 55.146 96.246 50.445C92.852 45.913 87.546 42.63 79.38 42.63C78.2104 42.63 77.0887 42.1654 76.2617 41.3383C75.8522 40.9288 75.5273 40.4427 75.3057 39.9076C75.0841 39.3726 74.97 38.7991 74.97 38.22Z" fill="black"/>
<path fill-rule="evenodd" clip-rule="evenodd" d="M69.972 52.92C69.972 51.9843 70.3437 51.087 71.0053 50.4253C71.667 49.7637 72.5643 49.392 73.5 49.392C76.7086 49.2865 79.8933 49.9792 82.7682 51.408C85.6431 52.8367 88.1184 54.9568 89.972 57.578C93.1259 62.2817 94.7659 67.8375 94.672 73.5C94.672 74.4357 94.3003 75.333 93.6387 75.9947C92.977 76.6563 92.0797 77.028 91.144 77.028C90.2083 77.028 89.311 76.6563 88.6493 75.9947C87.9877 75.333 87.616 74.4357 87.616 73.5C87.7078 69.307 86.5269 65.1845 84.229 61.676C82.048 58.618 78.691 56.448 73.504 56.448C73.0404 56.4485 72.5812 56.3577 72.1527 56.1806C71.7242 56.0035 71.3348 55.7437 71.0067 55.4161C70.6787 55.0884 70.4185 54.6993 70.2409 54.271C70.0634 53.8427 69.972 53.3836 69.972 52.92V52.92Z" fill="black"/>
</svg>
