<svg width="331" height="78" viewBox="0 0 331 78" fill="none" xmlns="http://www.w3.org/2000/svg">
<rect width="331" height="78" fill="white"/>
<mask id="path-1-inside-1" fill="white">
<path fill-rule="evenodd" clip-rule="evenodd" d="M114 63C119.527 63 124.635 61.2066 128.773 58.17C132.616 55.3505 139.384 55.3505 143.227 58.17C147.365 61.2066 152.473 63 158 63C171.807 63 183 51.8071 183 38C183 24.1929 171.807 13 158 13H149.32C147.827 13 146.388 13.5563 145.284 14.5604L140.036 19.3309C137.748 21.4114 134.252 21.4114 131.964 19.3309L126.716 14.5604C125.612 13.5563 124.173 13 122.68 13H114C100.193 13 89 24.1929 89 38C89 51.8071 100.193 63 114 63Z"/>
</mask>
<path fill-rule="evenodd" clip-rule="evenodd" d="M114 63C119.527 63 124.635 61.2066 128.773 58.17C132.616 55.3505 139.384 55.3505 143.227 58.17C147.365 61.2066 152.473 63 158 63C171.807 63 183 51.8071 183 38C183 24.1929 171.807 13 158 13H149.32C147.827 13 146.388 13.5563 145.284 14.5604L140.036 19.3309C137.748 21.4114 134.252 21.4114 131.964 19.3309L126.716 14.5604C125.612 13.5563 124.173 13 122.68 13H114C100.193 13 89 24.1929 89 38C89 51.8071 100.193 63 114 63Z" fill="white"/>
<path d="M140.036 19.3309L136.673 15.6312L140.036 19.3309ZM125.816 54.1387C122.506 56.5672 118.427 58 114 58V68C120.626 68 126.764 65.846 131.731 62.2013L125.816 54.1387ZM158 58C153.573 58 149.494 56.5672 146.184 54.1387L140.269 62.2013C145.236 65.846 151.374 68 158 68V58ZM178 38C178 49.0457 169.046 58 158 58V68C174.569 68 188 54.5685 188 38H178ZM158 18C169.046 18 178 26.9543 178 38H188C188 21.4315 174.569 8 158 8V18ZM149.32 18H158V8H149.32V18ZM143.399 23.0306L148.647 18.2601L141.92 10.8607L136.673 15.6312L143.399 23.0306ZM123.353 18.2601L128.601 23.0306L135.327 15.6312L130.08 10.8607L123.353 18.2601ZM114 18H122.68V8H114V18ZM94 38C94 26.9543 102.954 18 114 18V8C97.4315 8 84 21.4315 84 38H94ZM114 58C102.954 58 94 49.0457 94 38H84C84 54.5685 97.4315 68 114 68V58ZM130.08 10.8607C128.055 9.01994 125.417 8 122.68 8V18C122.929 18 123.169 18.0927 123.353 18.2601L130.08 10.8607ZM136.673 15.6312C136.291 15.9779 135.709 15.9779 135.327 15.6312L128.601 23.0306C132.796 26.8448 139.204 26.8448 143.399 23.0306L136.673 15.6312ZM149.32 8C146.583 8 143.945 9.01994 141.92 10.8607L148.647 18.2601C148.831 18.0927 149.071 18 149.32 18V8ZM131.731 62.2013C132.59 61.5712 134.126 61.0554 136 61.0554C137.874 61.0554 139.41 61.5712 140.269 62.2013L146.184 54.1387C143.2 51.9493 139.431 51.0554 136 51.0554C132.569 51.0554 128.8 51.9493 125.816 54.1387L131.731 62.2013Z" fill="black" mask="url(#path-1-inside-1)"/>
<rect x="129" y="28" width="6" height="15" rx="3" fill="black"/>
<rect x="147" y="28" width="6" height="15" rx="3" fill="black"/>
<rect x="307" y="13" width="5" height="50" fill="black"/>
<rect x="190" y="13" width="5" height="35" fill="black"/>
<rect x="215" y="13" width="5" height="35" fill="black"/>
<path d="M217.5 48C217.5 51.3152 216.183 54.4946 213.839 56.8388C211.495 59.183 208.315 60.5 205 60.5C201.685 60.5 198.505 59.183 196.161 56.8388C193.817 54.4946 192.5 51.3152 192.5 48" stroke="black" stroke-width="5"/>
<rect x="15" y="28" width="5" height="35" fill="black"/>
<path d="M28.5 32.5H33.4998L44.9995 63.0001H39.9998L28.5 32.5Z" fill="black"/>
<circle cx="30" cy="28" r="12.5" fill="white" stroke="black" stroke-width="5"/>
<rect x="264" y="13" width="5" height="50" fill="black"/>
<rect x="289" y="13" width="5" height="50" fill="black"/>
<circle cx="279" cy="38" r="12.5" stroke="black" stroke-width="5"/>
<rect x="227" y="28" width="5" height="20" fill="black"/>
<path d="M229.5 28C229.5 26.3585 229.823 24.733 230.452 23.2165C231.08 21.6999 232 20.3219 233.161 19.1612C234.322 18.0004 235.7 17.0797 237.216 16.4515C238.733 15.8233 240.358 15.5 242 15.5C243.642 15.5 245.267 15.8233 246.784 16.4515C248.3 17.0797 249.678 18.0004 250.839 19.1612C252 20.3219 252.92 21.6999 253.548 23.2165C254.177 24.733 254.5 26.3585 254.5 28" stroke="black" stroke-width="5"/>
<path d="M254.5 48C254.5 51.3152 253.183 54.4946 250.839 56.8388C248.495 59.183 245.315 60.5 242 60.5C238.685 60.5 235.505 59.183 233.161 56.8388C230.817 54.4946 229.5 51.3152 229.5 48" stroke="black" stroke-width="5"/>
<mask id="path-18-inside-2" fill="white">
<path fill-rule="evenodd" clip-rule="evenodd" d="M57 13H52V28C52 29.9698 52.388 31.9204 53.1418 33.7402C53.8956 35.5601 55.0005 37.2137 56.3934 38.6066C57.7863 39.9995 59.4399 41.1044 61.2597 41.8582C62.4603 42.3555 63.7177 42.6936 65 42.8661V64H70V42.6969C70.9358 42.5059 71.8536 42.2255 72.7403 41.8582C74.5601 41.1044 76.2137 39.9995 77.6066 38.6066C78.9995 37.2137 80.1044 35.5601 80.8582 33.7403C81.612 31.9204 82 29.9698 82 28V13H77V28H70H67H65H57V13Z"/>
</mask>
<path fill-rule="evenodd" clip-rule="evenodd" d="M57 13H52V28C52 29.9698 52.388 31.9204 53.1418 33.7402C53.8956 35.5601 55.0005 37.2137 56.3934 38.6066C57.7863 39.9995 59.4399 41.1044 61.2597 41.8582C62.4603 42.3555 63.7177 42.6936 65 42.8661V64H70V42.6969C70.9358 42.5059 71.8536 42.2255 72.7403 41.8582C74.5601 41.1044 76.2137 39.9995 77.6066 38.6066C78.9995 37.2137 80.1044 35.5601 80.8582 33.7403C81.612 31.9204 82 29.9698 82 28V13H77V28H70H67H65H57V13Z" fill="white"/>
<path d="M52 13V8H47V13H52ZM57 13H62V8H57V13ZM53.1418 33.7402L57.7612 31.8268L57.7612 31.8268L53.1418 33.7402ZM56.3934 38.6066L52.8579 42.1421L52.8579 42.1421L56.3934 38.6066ZM61.2597 41.8582L63.1732 37.2388L63.1732 37.2388L61.2597 41.8582ZM65 42.8661H70V38.4937L65.6667 37.9107L65 42.8661ZM65 64H60V69H65V64ZM70 64V69H75V64H70ZM70 42.6969L69 37.798L65 38.6145V42.6969H70ZM72.7403 41.8582L74.6537 46.4776L74.6537 46.4776L72.7403 41.8582ZM82 13H87V8H82V13ZM77 13V8H72V13H77ZM77 28V33H82V28H77ZM57 28H52V33H57V28ZM52 18H57V8H52V18ZM57 28V13H47V28H57ZM57.7612 31.8268C57.2587 30.6136 57 29.3132 57 28H47C47 30.6264 47.5173 33.2272 48.5224 35.6537L57.7612 31.8268ZM59.9289 35.0711C59.0003 34.1425 58.2638 33.0401 57.7612 31.8268L48.5224 35.6537C49.5275 38.0802 51.0007 40.285 52.8579 42.1421L59.9289 35.0711ZM63.1732 37.2388C61.9599 36.7362 60.8575 35.9997 59.9289 35.0711L52.8579 42.1421C54.715 43.9993 56.9198 45.4725 59.3463 46.4776L63.1732 37.2388ZM65.6667 37.9107C64.8118 37.7957 63.9735 37.5703 63.1732 37.2388L59.3463 46.4776C60.9471 47.1406 62.6236 47.5914 64.3333 47.8214L65.6667 37.9107ZM70 64V42.8661H60V64H70ZM70 59H65V69H70V59ZM65 42.6969V64H75V42.6969H65ZM70.8268 37.2388C70.2357 37.4836 69.6239 37.6706 69 37.798L71 47.5959C72.2478 47.3412 73.4714 46.9673 74.6537 46.4776L70.8268 37.2388ZM74.0711 35.0711C73.1425 35.9997 72.0401 36.7362 70.8268 37.2388L74.6537 46.4776C77.0802 45.4725 79.285 43.9993 81.1421 42.1421L74.0711 35.0711ZM76.2388 31.8268C75.7362 33.0401 74.9997 34.1425 74.0711 35.0711L81.1421 42.1421C82.9993 40.285 84.4725 38.0802 85.4776 35.6537L76.2388 31.8268ZM77 28C77 29.3132 76.7413 30.6136 76.2388 31.8268L85.4776 35.6537C86.4827 33.2272 87 30.6264 87 28H77ZM87 28V13H77V28H87ZM82 8H77V18H82V8ZM72 13V28H82V13H72ZM70 33H77V23H70V33ZM67 33H70V23H67V33ZM65 33H67V23H65V33ZM57 33H65V23H57V33ZM52 13V28H62V13H52Z" fill="black" mask="url(#path-18-inside-2)"/>
</svg>
