<svg width="297" height="51" viewBox="0 0 297 51" fill="none" xmlns="http://www.w3.org/2000/svg">
<mask id="path-1-inside-1" fill="white">
<path fill-rule="evenodd" clip-rule="evenodd" d="M99 50C104.527 50 109.635 48.2066 113.773 45.17C117.616 42.3505 124.384 42.3505 128.227 45.17C132.365 48.2066 137.473 50 143 50C156.807 50 168 38.8071 168 25C168 11.1929 156.807 0 143 0H134.32C132.827 0 131.388 0.556332 130.284 1.56036L125.036 6.33088C122.748 8.41136 119.252 8.41135 116.964 6.33087L111.716 1.56036C110.612 0.556331 109.173 0 107.68 0H99C85.1929 0 74 11.1929 74 25C74 38.8071 85.1929 50 99 50Z"/>
</mask>
<path fill-rule="evenodd" clip-rule="evenodd" d="M99 50C104.527 50 109.635 48.2066 113.773 45.17C117.616 42.3505 124.384 42.3505 128.227 45.17C132.365 48.2066 137.473 50 143 50C156.807 50 168 38.8071 168 25C168 11.1929 156.807 0 143 0H134.32C132.827 0 131.388 0.556332 130.284 1.56036L125.036 6.33088C122.748 8.41136 119.252 8.41135 116.964 6.33087L111.716 1.56036C110.612 0.556331 109.173 0 107.68 0H99C85.1929 0 74 11.1929 74 25C74 38.8071 85.1929 50 99 50Z" fill="white"/>
<path d="M125.036 6.33088L121.673 2.63118L125.036 6.33088ZM110.816 41.1387C107.506 43.5672 103.427 45 99 45V55C105.626 55 111.764 52.846 116.731 49.2013L110.816 41.1387ZM143 45C138.573 45 134.494 43.5672 131.184 41.1387L125.269 49.2013C130.236 52.846 136.374 55 143 55V45ZM163 25C163 36.0457 154.046 45 143 45V55C159.569 55 173 41.5685 173 25H163ZM143 5C154.046 5 163 13.9543 163 25H173C173 8.43146 159.569 -5 143 -5V5ZM134.32 5H143V-5H134.32V5ZM128.399 10.0306L133.647 5.26006L126.92 -2.13934L121.673 2.63118L128.399 10.0306ZM108.353 5.26006L113.601 10.0306L120.327 2.63117L115.08 -2.13934L108.353 5.26006ZM99 5H107.68V-5H99V5ZM79 25C79 13.9543 87.9543 5 99 5V-5C82.4315 -5 69 8.43146 69 25H79ZM99 45C87.9543 45 79 36.0457 79 25H69C69 41.5685 82.4315 55 99 55V45ZM115.08 -2.13934C113.055 -3.98006 110.417 -5 107.68 -5V5C107.929 5 108.169 5.09272 108.353 5.26006L115.08 -2.13934ZM121.673 2.63118C121.291 2.97792 120.709 2.97792 120.327 2.63117L113.601 10.0306C117.796 13.8448 124.204 13.8448 128.399 10.0306L121.673 2.63118ZM134.32 -5C131.583 -5 128.945 -3.98006 126.92 -2.13934L133.647 5.26006C133.831 5.09272 134.071 5 134.32 5V-5ZM116.731 49.2013C117.59 48.5712 119.126 48.0554 121 48.0554C122.874 48.0554 124.41 48.5712 125.269 49.2013L131.184 41.1387C128.2 38.9493 124.431 38.0554 121 38.0554C117.569 38.0554 113.8 38.9493 110.816 41.1387L116.731 49.2013Z" fill="black" mask="url(#path-1-inside-1)"/>
<rect x="109" y="15" width="6" height="15" rx="3" fill="black"/>
<rect x="127" y="15" width="6" height="15" rx="3" fill="black"/>
<rect x="292" width="5" height="50" fill="black"/>
<rect x="175" width="5" height="35" fill="black"/>
<rect x="200" width="5" height="35" fill="black"/>
<path d="M202.5 35C202.5 38.3152 201.183 41.4946 198.839 43.8388C196.495 46.183 193.315 47.5 190 47.5C186.685 47.5 183.505 46.183 181.161 43.8388C178.817 41.4946 177.5 38.3152 177.5 35" stroke="black" stroke-width="5"/>
<rect y="15" width="5" height="35" fill="black"/>
<path d="M13.5 19.5H18.4998L29.9995 50.0001H24.9998L13.5 19.5Z" fill="black"/>
<circle cx="15" cy="15" r="12.5" fill="white" stroke="black" stroke-width="5"/>
<rect x="249" width="5" height="50" fill="black"/>
<rect x="274" width="5" height="50" fill="black"/>
<circle cx="264" cy="25" r="12.5" stroke="black" stroke-width="5"/>
<rect x="212" y="15" width="5" height="20" fill="black"/>
<path d="M214.5 15C214.5 13.3585 214.823 11.733 215.452 10.2165C216.08 8.69989 217 7.3219 218.161 6.16117C219.322 5.00043 220.7 4.07969 222.216 3.45151C223.733 2.82332 225.358 2.5 227 2.5C228.642 2.5 230.267 2.82332 231.784 3.45151C233.3 4.07969 234.678 5.00043 235.839 6.16117C237 7.3219 237.92 8.69989 238.548 10.2165C239.177 11.733 239.5 13.3585 239.5 15" stroke="black" stroke-width="5"/>
<path d="M239.5 35C239.5 38.3152 238.183 41.4946 235.839 43.8388C233.495 46.183 230.315 47.5 227 47.5C223.685 47.5 220.505 46.183 218.161 43.8388C215.817 41.4946 214.5 38.3152 214.5 35" stroke="black" stroke-width="5"/>
<mask id="path-18-inside-2" fill="white">
<path fill-rule="evenodd" clip-rule="evenodd" d="M42 0H37V15C37 16.9698 37.388 18.9204 38.1418 20.7402C38.8956 22.5601 40.0005 24.2137 41.3934 25.6066C42.7863 26.9995 44.4399 28.1044 46.2597 28.8582C47.4603 29.3555 48.7177 29.6936 50 29.8661V51H55V29.6969C55.9358 29.5059 56.8536 29.2255 57.7403 28.8582C59.5601 28.1044 61.2137 26.9995 62.6066 25.6066C63.9995 24.2137 65.1044 22.5601 65.8582 20.7403C66.612 18.9204 67 16.9698 67 15V0H62V15H55H52H50H42V0Z"/>
</mask>
<path fill-rule="evenodd" clip-rule="evenodd" d="M42 0H37V15C37 16.9698 37.388 18.9204 38.1418 20.7402C38.8956 22.5601 40.0005 24.2137 41.3934 25.6066C42.7863 26.9995 44.4399 28.1044 46.2597 28.8582C47.4603 29.3555 48.7177 29.6936 50 29.8661V51H55V29.6969C55.9358 29.5059 56.8536 29.2255 57.7403 28.8582C59.5601 28.1044 61.2137 26.9995 62.6066 25.6066C63.9995 24.2137 65.1044 22.5601 65.8582 20.7403C66.612 18.9204 67 16.9698 67 15V0H62V15H55H52H50H42V0Z" fill="white"/>
<path d="M37 0V-5H32V0H37ZM42 0H47V-5H42V0ZM38.1418 20.7402L42.7612 18.8268L42.7612 18.8268L38.1418 20.7402ZM41.3934 25.6066L37.8579 29.1421L37.8579 29.1421L41.3934 25.6066ZM46.2597 28.8582L48.1732 24.2388H48.1732L46.2597 28.8582ZM50 29.8661H55V25.4937L50.6667 24.9107L50 29.8661ZM50 51H45V56H50V51ZM55 51V56H60V51H55ZM55 29.6969L54 24.798L50 25.6145V29.6969H55ZM57.7403 28.8582L59.6537 33.4776L59.6537 33.4776L57.7403 28.8582ZM67 0H72V-5H67V0ZM62 0V-5H57V0H62ZM62 15V20H67V15H62ZM42 15H37V20H42V15ZM37 5H42V-5H37V5ZM42 15V0H32V15H42ZM42.7612 18.8268C42.2587 17.6136 42 16.3132 42 15H32C32 17.6264 32.5173 20.2272 33.5224 22.6537L42.7612 18.8268ZM44.9289 22.0711C44.0003 21.1425 43.2638 20.0401 42.7612 18.8268L33.5224 22.6537C34.5275 25.0802 36.0007 27.285 37.8579 29.1421L44.9289 22.0711ZM48.1732 24.2388C46.9599 23.7362 45.8575 22.9997 44.9289 22.0711L37.8579 29.1421C39.715 30.9993 41.9198 32.4725 44.3463 33.4776L48.1732 24.2388ZM50.6667 24.9107C49.8118 24.7957 48.9735 24.5703 48.1732 24.2388L44.3463 33.4776C45.9471 34.1406 47.6236 34.5914 49.3333 34.8214L50.6667 24.9107ZM55 51V29.8661H45V51H55ZM55 46H50V56H55V46ZM50 29.6969V51H60V29.6969H50ZM55.8268 24.2388C55.2357 24.4837 54.6239 24.6706 54 24.798L56 34.5959C57.2478 34.3412 58.4714 33.9673 59.6537 33.4776L55.8268 24.2388ZM59.0711 22.0711C58.1425 22.9997 57.0401 23.7362 55.8268 24.2388L59.6537 33.4776C62.0802 32.4725 64.285 30.9993 66.1421 29.1421L59.0711 22.0711ZM61.2388 18.8268C60.7362 20.0401 59.9997 21.1425 59.0711 22.0711L66.1421 29.1421C67.9993 27.285 69.4725 25.0802 70.4776 22.6537L61.2388 18.8268ZM62 15C62 16.3132 61.7413 17.6136 61.2388 18.8268L70.4776 22.6537C71.4827 20.2272 72 17.6264 72 15H62ZM72 15V0H62V15H72ZM67 -5H62V5H67V-5ZM57 0V15H67V0H57ZM55 20H62V10H55V20ZM52 20H55V10H52V20ZM50 20H52V10H50V20ZM42 20H50V10H42V20ZM37 0V15H47V0H37Z" fill="black" mask="url(#path-18-inside-2)"/>
</svg>
