<svg width="456" height="562" viewBox="0 0 456 562" fill="none" xmlns="http://www.w3.org/2000/svg">
<path d="M393.933 363.761L404.122 332.269L426.815 356.351L393.933 363.761Z" fill="#966637" stroke="#392606"/>
<path d="M393.959 366.425L427.768 359.213V366.247L423.163 373.614L393.959 366.425Z" fill="#BE1912" stroke="#392606"/>
<path d="M383.657 436.099L372.723 446.578L353.037 427.829L363.457 420.127L383.657 436.099Z" fill="#BE1912" stroke="#392606"/>
<path d="M391.026 370.938L421.502 376.564L422.859 384.256L403.131 404.923L391.026 370.938Z" fill="#D7684A" stroke="#392606"/>
<path d="M382.248 408.228L382.425 408.117L382.47 407.912L390.265 372.608L398.025 407.758L387.122 433.829L365.825 418.551L382.248 408.228Z" fill="#C3552A" stroke="#392606"/>
<path d="M400.944 326.94L390.277 362.05V334.721V334.505L390.119 334.356L367.389 313.047L393.362 306.089L400.944 326.94Z" fill="#C2150E" stroke="#392606"/>
<path d="M295.37 363.66L313.603 298.406L383.452 332.608L386.829 380.362L374.514 395.993L295.37 363.66Z" fill="#EFC794" stroke="#392606"/>
<path d="M257.425 390.162L293.843 368.406L372.364 398.458L376.472 406.674L350.724 425.269L257.425 390.162Z" fill="#9D7047" stroke="#392606"/>
<path d="M323.528 281.282L329.518 272.527L355.97 287.121L323.528 290.32V281.282Z" fill="#CD5437" stroke="#392606"/>
<path d="M255.491 251.282L270.626 227.632L339.77 248.279L310.239 291.623L255.491 251.282Z" fill="#EEC994" stroke="#392606"/>
<path d="M169.467 134.818L191.937 121.711L190.508 202.232L168.027 186.777L159.366 160.312L169.467 134.818Z" fill="#70AAA3" stroke="#392606"/>
<path d="M193.641 193.856L200.692 118.176L220.967 103.112L229.388 125.184L193.641 193.856Z" fill="#348346" stroke="#392606"/>
<path d="M219.061 201.21H192.349L231.909 133.529L244.547 155.996L239.254 183.42L219.061 201.21Z" fill="#4684E2" stroke="#392606"/>
<path d="M204.732 269.782L250.351 256.336L310.743 295.954L289.475 363.143L253.946 385.708L221.174 346.19L204.732 269.782Z" fill="#AB311F" stroke="#392606"/>
<path d="M276.233 223.26L273.436 194.827L331.421 227.893L339.569 243.737L276.233 223.26Z" fill="#BB7343" stroke="#392606"/>
<path d="M273.344 145.04L335.802 119.294L317.687 167.917L317.646 168.026L317.658 168.142L322.436 214.964L273.344 189.227V145.04Z" fill="#AF0F0C" stroke="#392606"/>
<path d="M359.608 310.317L323.402 294.07L391.713 285.591V301.212L359.608 310.317Z" fill="#922216" stroke="#392606"/>
<path d="M382.469 260.062L382.434 260.211L382.489 260.354L390.071 280.258L362.085 285.476L330.621 268.79L362.126 230.125L386.281 243.86L382.469 260.062Z" fill="#EDBF8B" stroke="#392606"/>
<path d="M383.456 213.903H390.221L388.923 235.532L383.456 222.075V213.903Z" fill="#ABF5FF" stroke="#392606"/>
<path d="M380.507 223.147V223.255L380.552 223.353L386.438 236.387L363.634 216.652L380.507 213.988V223.147Z" fill="#C9A975" stroke="#392606"/>
<path d="M380.5 210.955L380.444 210.957L380.39 210.971L363.866 215.437L388.471 185.364L392.126 210.49L380.5 210.955Z" fill="#C59553" stroke="#392606"/>
<path d="M451.262 327.485L424.358 334.443L441.517 301.517L454.506 317.289L451.262 327.485Z" fill="#5D3506" stroke="#392606"/>
<path d="M387.383 260.203L398.817 232.095L410.358 237.173L439.888 298.169L419.373 336.813L405.812 323.252L387.383 260.203Z" fill="#BF9749" stroke="#392606"/>
<path d="M399.475 224.296L391.054 187.804L416.944 206.759L408.045 229.709L399.475 224.296Z" fill="#4C300F" stroke="#392606"/>
<path d="M387.25 180.429L362.735 128.994L381.905 125.253L400.051 134.804L412.432 198.616L387.25 180.429Z" fill="#9A5626" stroke="#392606"/>
<path d="M360.14 77.9323L394.038 123.6L375.71 121.309L375.588 121.294L375.472 121.337L360.135 127.089L342.178 113.857L360.14 77.9323Z" fill="#9A6E40" stroke="#392606"/>
<path d="M281.208 95.8637L305.717 23.2963L358.459 71.2433L336.809 112.138L305.637 122.689L281.208 95.8637Z" fill="#4B2100" stroke="#392606"/>
<path d="M301.489 21.6296L277.459 95.1597L251.709 75.6083L251.626 75.5459L251.526 75.5211L212.49 65.8825L220.182 0.5H272.195L301.489 21.6296Z" fill="#655E0F" stroke="#392606"/>
<path d="M166.076 70.1516L165.96 70.1672L165.863 70.2327L125.873 97.2139L89.366 32.3661L149.21 1.9617H213.808L205.648 64.8431L166.076 70.1516Z" fill="#BA9948" stroke="#392606"/>
<path d="M122.213 99.4268L106.009 134.218L33.4518 85.2062L84.6675 38.777L122.213 99.4268Z" fill="#935014" stroke="#392606"/>
<path d="M103.278 204.186L13.425 214.331L0.512066 191.853L3.37512 159.882L103.278 172.43V204.186Z" fill="#3E240D" stroke="#392606"/>
<path d="M103.278 165.581L3.4234 154.004V123.932L28.367 93.232L103.278 140.595V165.581Z" fill="#7E7C27" stroke="#392606"/>
<path d="M136.693 241.204L72.1918 311.963L17.8727 221.491L103.124 210.032L136.693 241.204Z" fill="#AB341E" stroke="#392606"/>
<path d="M194.442 284.83L208.354 346.715L78.3931 315.428L140.392 245.258L194.442 284.83Z" fill="#59380B" stroke="#392606"/>
<path d="M158.377 346.334L162.659 383.918H102.183L82.6292 328.595L158.377 346.334Z" fill="#E2CD9B" stroke="#392606"/>
<path d="M209.089 357.53L219.936 400.917L194.775 386.007L173.496 346.758L209.089 357.53Z" fill="#4684E2" stroke="#392606"/>
<path d="M176.797 391.336L166.887 348.545L189.097 386.619L189.158 386.723L189.26 386.788L215.768 403.736L176.797 391.336Z" fill="#0098A1" stroke="#392606"/>
<path d="M172.126 396.862L217.776 413.001L175.815 420.379L172.126 396.862Z" fill="#5E8D97" stroke="#392606"/>
<path d="M173.743 427.738L218.181 417.201L143.965 467.595L173.743 427.738Z" fill="#3ECEB4" stroke="#392606"/>
<path d="M223.622 442.05L146.198 470.912L223.622 422.35V442.05Z" fill="#5E8D97" stroke="#392606"/>
<path d="M222.587 450.888L219.286 490.031L144.3 474.94L222.587 450.888Z" fill="#173636" stroke="#392606"/>
<path d="M140.568 480.461L217.179 493.074L122.816 508.957L140.568 480.461Z" fill="#00B8C3" stroke="#392606"/>
<path d="M124.54 512.824L219.724 499.974V557.085L124.54 512.824Z" fill="#036E85" stroke="#392606"/>
<path d="M123.184 522.497L216.864 557.159L118.969 551.07L123.184 522.497Z" fill="#81BFB4" stroke="#392606"/>
<path d="M253.342 402.069V435.144L230.871 438.421L217.57 355.765L246.114 386.649L253.342 402.069Z" fill="#D7B986" stroke="#392606"/>
<path d="M254.696 437.68L244.228 503.822L226.109 488.955L230.916 442.81L254.696 437.68Z" fill="#641005" stroke="#392606"/>
<path d="M241.703 506.984L254.205 556.03L230.918 561.153L226.646 493.752L241.703 506.984Z" fill="#885F28" stroke="#392606"/>
<path d="M162.808 392.226L168.006 418.69L106.227 441.678V392.226H162.808Z" fill="#9F7F4E" stroke="#392606"/>
<path d="M166.315 426.369L138.548 467.785L95.2878 479.194L105.152 449.601L166.315 426.369Z" fill="#B71F15" stroke="#392606"/>
<path d="M132.396 479.637L114.791 504.655L89.8453 496.183L94.3795 486.208L132.396 479.637Z" fill="#87471E" stroke="#392606"/>
<path d="M112.535 513.379V547.488L59.8902 534.682L88.3211 503.409L112.535 513.379Z" fill="#5C3808" stroke="#392606"/>
<path d="M331.916 140.728L336.973 131.075H358.293L384.078 180.259H376.379H368.072L331.916 140.728Z" fill="#AC6934" stroke="#392606"/>
<path d="M322.614 175.102L326.901 150.805L332.255 145.898L365.22 181.729L357.014 190.39L322.614 175.102Z" fill="#E4AF72" stroke="#392606"/>
<path d="M351.772 212.81L351.731 213.001L351.83 213.169L359.917 226.965L343.163 243.719L324.495 202.074L323.095 182.011L355.581 195.194L351.772 212.81Z" fill="#924D29" stroke="#392606"/>
<path d="M414.13 198.583L407.559 145.075L413.177 152.7L419.971 193.946L419.536 205.237L414.13 198.583Z" fill="#7E3A13" stroke="#392606"/>
<mask id="path-56-inside-1" fill="white">
<path d="M154.984 121.011C163.571 111.061 175.083 104.078 187.875 101.06L192.169 119.257C183.212 121.371 175.152 126.26 169.139 133.227L154.984 121.011Z"/>
</mask>
<path d="M154.984 121.011C163.571 111.061 175.083 104.078 187.875 101.06L192.169 119.257C183.212 121.371 175.152 126.26 169.139 133.227L154.984 121.011Z" fill="#333194" stroke="#392606" stroke-width="2" mask="url(#path-56-inside-1)"/>
<mask id="path-57-inside-2" fill="white">
<path d="M139.907 158.716C140.548 145.589 145.32 132.999 153.542 122.745L168.129 134.441C162.372 141.621 159.031 150.436 158.582 159.628L139.907 158.716Z"/>
</mask>
<path d="M139.907 158.716C140.548 145.589 145.32 132.999 153.542 122.745L168.129 134.441C162.372 141.621 159.031 150.436 158.582 159.628L139.907 158.716Z" fill="#3ECEB4" stroke="#392606" stroke-width="2" mask="url(#path-57-inside-2)"/>
<mask id="path-58-inside-3" fill="white">
<path d="M151.239 197.711C143.662 186.971 139.672 174.113 139.838 160.97L158.533 161.206C158.417 170.408 161.211 179.412 166.517 186.932L151.239 197.711Z"/>
</mask>
<path d="M151.239 197.711C143.662 186.971 139.672 174.113 139.838 160.97L158.533 161.206C158.417 170.408 161.211 179.412 166.517 186.932L151.239 197.711Z" fill="#3D7838" stroke="#392606" stroke-width="2" mask="url(#path-58-inside-3)"/>
<mask id="path-59-inside-4" fill="white">
<path d="M184.176 221.462C171.594 217.664 160.533 209.988 152.572 199.53L167.45 188.205C173.024 195.528 180.769 200.903 189.579 203.562L184.176 221.462Z"/>
</mask>
<path d="M184.176 221.462C171.594 217.664 160.533 209.988 152.572 199.53L167.45 188.205C173.024 195.528 180.769 200.903 189.579 203.562L184.176 221.462Z" fill="#59A8C1" stroke="#392606" stroke-width="2" mask="url(#path-59-inside-4)"/>
<mask id="path-60-inside-5" fill="white">
<path d="M224.754 219.899C212.501 224.653 199.059 225.414 186.347 222.074L191.099 203.991C200 206.33 209.412 205.797 217.991 202.468L224.754 219.899Z"/>
</mask>
<path d="M224.754 219.899C212.501 224.653 199.059 225.414 186.347 222.074L191.099 203.991C200 206.33 209.412 205.797 217.991 202.468L224.754 219.899Z" fill="#1E2050" stroke="#392606" stroke-width="2" mask="url(#path-60-inside-5)"/>
<mask id="path-61-inside-6" fill="white">
<path d="M255.768 193.686C249.039 204.976 238.915 213.852 226.842 219.046L219.453 201.87C227.907 198.234 234.996 192.019 239.707 184.114L255.768 193.686Z"/>
</mask>
<path d="M255.768 193.686C249.039 204.976 238.915 213.852 226.842 219.046L219.453 201.87C227.907 198.234 234.996 192.019 239.707 184.114L255.768 193.686Z" fill="#1C82A2" stroke="#392606" stroke-width="2" mask="url(#path-61-inside-6)"/>
<mask id="path-62-inside-7" fill="white">
<path d="M264.069 153.936C265.717 166.976 263.204 180.202 256.888 191.728L240.491 182.743C244.914 174.673 246.673 165.411 245.519 156.281L264.069 153.936Z"/>
</mask>
<path d="M264.069 153.936C265.717 166.976 263.204 180.202 256.888 191.728L240.491 182.743C244.914 174.673 246.673 165.411 245.519 156.281L264.069 153.936Z" fill="#5FAAE1" stroke="#392606" stroke-width="2" mask="url(#path-62-inside-7)"/>
<mask id="path-63-inside-8" fill="white">
<path d="M246.137 117.502C255.464 126.762 261.627 138.733 263.745 151.704L245.293 154.718C243.809 145.636 239.494 137.254 232.964 130.77L246.137 117.502Z"/>
</mask>
<path d="M246.137 117.502C255.464 126.762 261.627 138.733 263.745 151.704L245.293 154.718C243.809 145.636 239.494 137.254 232.964 130.77L246.137 117.502Z" fill="#0098A2" stroke="#392606" stroke-width="2" mask="url(#path-63-inside-8)"/>
<mask id="path-64-inside-9" fill="white">
<path d="M173.736 72.9235C160.977 76.8768 149.219 83.5303 139.26 92.4319L157.854 113.233C164.827 107 173.06 102.341 181.993 99.5733L173.736 72.9235Z"/>
</mask>
<path d="M173.736 72.9235C160.977 76.8768 149.219 83.5303 139.26 92.4319L157.854 113.233C164.827 107 173.06 102.341 181.993 99.5733L173.736 72.9235Z" fill="#9FCCD6" stroke="#392606" stroke-width="2" mask="url(#path-64-inside-9)"/>
<mask id="path-65-inside-10" fill="white">
<path d="M136.382 95.1161C126.809 104.431 119.353 115.697 114.521 128.15L140.532 138.242C143.915 129.523 149.135 121.635 155.839 115.112L136.382 95.1161Z"/>
</mask>
<path d="M136.382 95.1161C126.809 104.431 119.353 115.697 114.521 128.15L140.532 138.242C143.915 129.523 149.135 121.635 155.839 115.112L136.382 95.1161Z" fill="#036E85" stroke="#392606" stroke-width="2" mask="url(#path-65-inside-10)"/>
<mask id="path-66-inside-11" fill="white">
<path d="M113.176 131.848C108.875 144.493 107.346 157.917 108.694 171.206L136.452 168.39C135.508 159.085 136.578 149.686 139.589 140.832L113.176 131.848Z"/>
</mask>
<path d="M113.176 131.848C108.875 144.493 107.346 157.917 108.694 171.206L136.452 168.39C135.508 159.085 136.578 149.686 139.589 140.832L113.176 131.848Z" fill="#173636" stroke="#392606" stroke-width="2" mask="url(#path-66-inside-11)"/>
<mask id="path-67-inside-12" fill="white">
<path d="M109.174 175.112C111.083 188.332 115.815 200.986 123.049 212.214L146.503 197.104C141.438 189.242 138.124 180.381 136.788 171.125L109.174 175.112Z"/>
</mask>
<path d="M109.174 175.112C111.083 188.332 115.815 200.986 123.049 212.214L146.503 197.104C141.438 189.242 138.124 180.381 136.788 171.125L109.174 175.112Z" fill="#B998FF" stroke="#392606" stroke-width="2" mask="url(#path-67-inside-12)"/>
<mask id="path-68-inside-13" fill="white">
<path d="M125.25 215.477C132.953 226.389 142.914 235.516 154.457 242.236L168.494 218.125C160.412 213.419 153.437 207.029 148.044 199.388L125.25 215.477Z"/>
</mask>
<path d="M125.25 215.477C132.953 226.389 142.914 235.516 154.457 242.236L168.494 218.125C160.412 213.419 153.437 207.029 148.044 199.388L125.25 215.477Z" fill="#81BFB4" stroke="#392606" stroke-width="2" mask="url(#path-68-inside-13)"/>
<mask id="path-69-inside-14" fill="white">
<path d="M157.899 244.144C169.716 250.37 182.735 253.98 196.072 254.727L197.633 226.871C188.295 226.348 179.179 223.82 170.905 219.461L157.899 244.144Z"/>
</mask>
<path d="M157.899 244.144C169.716 250.37 182.735 253.98 196.072 254.727L197.633 226.871C188.295 226.348 179.179 223.82 170.905 219.461L157.899 244.144Z" fill="#00B8C4" stroke="#392606" stroke-width="2" mask="url(#path-69-inside-14)"/>
<mask id="path-70-inside-15" fill="white">
<path d="M200.005 254.864C213.36 255.047 226.599 252.353 238.821 246.964L227.565 221.435C219.008 225.208 209.738 227.095 200.386 226.967L200.005 254.864Z"/>
</mask>
<path d="M200.005 254.864C213.36 255.047 226.599 252.353 238.821 246.964L227.565 221.435C219.008 225.208 209.738 227.095 200.386 226.967L200.005 254.864Z" fill="#3758CD" stroke="#392606" stroke-width="2" mask="url(#path-70-inside-15)"/>
<mask id="path-71-inside-16" fill="white">
<path d="M242.388 245.3C254.371 239.4 264.943 230.989 273.387 220.639L251.768 203.003C245.856 210.25 238.453 216.139 230.063 220.271L242.388 245.3Z"/>
</mask>
<path d="M242.388 245.3C254.371 239.4 264.943 230.989 273.387 220.639L251.768 203.003C245.856 210.25 238.453 216.139 230.063 220.271L242.388 245.3Z" fill="#3DB6A0" stroke="#392606" stroke-width="2" mask="url(#path-71-inside-16)"/>
<mask id="path-72-inside-17" fill="white">
<path d="M257.003 87.2827C246.305 79.2844 234.011 73.6828 220.956 70.8584L215.057 98.1273C224.198 100.105 232.806 104.027 240.296 109.628L257.003 87.2827Z"/>
</mask>
<path d="M257.003 87.2827C246.305 79.2844 234.011 73.6828 220.956 70.8584L215.057 98.1273C224.198 100.105 232.806 104.027 240.296 109.628L257.003 87.2827Z" fill="#73F6FE" stroke="#392606" stroke-width="2" mask="url(#path-72-inside-17)"/>
<mask id="path-73-inside-18" fill="white">
<path d="M284.765 120.704C278.865 108.721 270.454 98.1488 260.104 89.7054L242.468 111.324C249.715 117.236 255.604 124.639 259.735 133.029L284.765 120.704Z"/>
</mask>
<path d="M284.765 120.704C278.865 108.721 270.454 98.1488 260.104 89.7054L242.468 111.324C249.715 117.236 255.604 124.639 259.735 133.029L284.765 120.704Z" fill="#5E8D97" stroke="#392606" stroke-width="2" mask="url(#path-73-inside-18)"/>
<mask id="path-74-inside-19" fill="white">
<path d="M290.847 136.563C289.687 132.45 288.245 128.422 286.532 124.506L260.973 135.691C262.172 138.433 263.182 141.253 263.993 144.133L290.847 136.563Z"/>
</mask>
<path d="M290.847 136.563C289.687 132.45 288.245 128.422 286.532 124.506L260.973 135.691C262.172 138.433 263.182 141.253 263.993 144.133L290.847 136.563Z" fill="#99F9FF" stroke="#392606" stroke-width="2" mask="url(#path-74-inside-19)"/>
<mask id="path-75-inside-20" fill="white">
<path d="M217.093 70.1078C203.93 67.8379 190.433 68.4282 177.519 71.8385L184.642 98.8136C193.684 96.4257 203.135 96.0124 212.352 97.6018L217.093 70.1078Z"/>
</mask>
<path d="M217.093 70.1078C203.93 67.8379 190.433 68.4282 177.519 71.8385L184.642 98.8136C193.684 96.4257 203.135 96.0124 212.352 97.6018L217.093 70.1078Z" fill="#6C93DE" stroke="#392606" stroke-width="2" mask="url(#path-75-inside-20)"/>
</svg>
