<svg width="94" height="50" viewBox="0 0 94 50" fill="none" xmlns="http://www.w3.org/2000/svg">
<mask id="path-1-inside-1" fill="white">
<path fill-rule="evenodd" clip-rule="evenodd" d="M25 50C30.5268 50 35.6347 48.2066 39.7735 45.17C43.6163 42.3505 50.3837 42.3505 54.2265 45.17C58.3654 48.2066 63.4732 50 69 50C82.8071 50 94 38.8071 94 25C94 11.1929 82.8071 0 69 0H60.3196C58.827 0 57.388 0.556332 56.2836 1.56036L51.036 6.33088C48.7475 8.41136 45.2525 8.41135 42.964 6.33087L37.7164 1.56036C36.612 0.556331 35.173 0 33.6804 0H25C11.1929 0 0 11.1929 0 25C0 38.8071 11.1929 50 25 50Z"/>
</mask>
<path fill-rule="evenodd" clip-rule="evenodd" d="M25 50C30.5268 50 35.6347 48.2066 39.7735 45.17C43.6163 42.3505 50.3837 42.3505 54.2265 45.17C58.3654 48.2066 63.4732 50 69 50C82.8071 50 94 38.8071 94 25C94 11.1929 82.8071 0 69 0H60.3196C58.827 0 57.388 0.556332 56.2836 1.56036L51.036 6.33088C48.7475 8.41136 45.2525 8.41135 42.964 6.33087L37.7164 1.56036C36.612 0.556331 35.173 0 33.6804 0H25C11.1929 0 0 11.1929 0 25C0 38.8071 11.1929 50 25 50Z" fill="white"/>
<path d="M51.036 6.33088L47.6727 2.63118L51.036 6.33088ZM36.8157 41.1387C33.5056 43.5672 29.4275 45 25 45V55C31.6261 55 37.7637 52.846 42.7312 49.2013L36.8157 41.1387ZM69 45C64.5725 45 60.4944 43.5672 57.1843 41.1387L51.2688 49.2013C56.2363 52.846 62.3739 55 69 55V45ZM89 25C89 36.0457 80.0457 45 69 45V55C85.5685 55 99 41.5685 99 25H89ZM69 5C80.0457 5 89 13.9543 89 25H99C99 8.43146 85.5685 -5 69 -5V5ZM60.3196 5H69V-5H60.3196V5ZM54.3994 10.0306L59.647 5.26006L52.9202 -2.13934L47.6727 2.63118L54.3994 10.0306ZM34.353 5.26006L39.6006 10.0306L46.3273 2.63117L41.0798 -2.13934L34.353 5.26006ZM25 5H33.6804V-5H25V5ZM5 25C5 13.9543 13.9543 5 25 5V-5C8.43146 -5 -5 8.43146 -5 25H5ZM25 45C13.9543 45 5 36.0457 5 25H-5C-5 41.5685 8.43146 55 25 55V45ZM41.0798 -2.13934C39.055 -3.98006 36.4168 -5 33.6804 -5V5C33.9291 5 34.169 5.09272 34.353 5.26006L41.0798 -2.13934ZM47.6727 2.63118C47.2913 2.97792 46.7087 2.97792 46.3273 2.63117L39.6006 10.0306C43.7962 13.8448 50.2038 13.8448 54.3994 10.0306L47.6727 2.63118ZM60.3196 -5C57.5832 -5 54.945 -3.98006 52.9202 -2.13934L59.647 5.26006C59.831 5.09272 60.0709 5 60.3196 5V-5ZM42.7312 49.2013C43.5901 48.5712 45.1256 48.0554 47 48.0554C48.8744 48.0554 50.4099 48.5712 51.2688 49.2013L57.1843 41.1387C54.2003 38.9493 50.4307 38.0554 47 38.0554C43.5693 38.0554 39.7997 38.9493 36.8157 41.1387L42.7312 49.2013Z" fill="black" mask="url(#path-1-inside-1)"/>
<rect x="35" y="15" width="6" height="15" rx="3" fill="black"/>
<rect x="53" y="15" width="6" height="15" rx="3" fill="black"/>
</svg>
